<?xml version="1.0" encoding="utf-8" standalone="no"?>
<!DOCTYPE svg PUBLIC "-//W3C//DTD SVG 1.1//EN"
  "http://www.w3.org/Graphics/SVG/1.1/DTD/svg11.dtd">
<svg xmlns:xlink="http://www.w3.org/1999/xlink" width="518.4pt" height="424.8pt" viewBox="0 0 518.4 424.8" xmlns="http://www.w3.org/2000/svg" version="1.1">
 <metadata>
  <rdf:RDF xmlns:dc="http://purl.org/dc/elements/1.1/" xmlns:cc="http://creativecommons.org/ns#" xmlns:rdf="http://www.w3.org/1999/02/22-rdf-syntax-ns#">
   <cc:Work>
    <dc:type rdf:resource="http://purl.org/dc/dcmitype/StillImage"/>
    <dc:date>2026-10-02T16:25:16.170240</dc:date>
    <dc:format>image/svg+xml</dc:format>
    <dc:creator>
     <cc:Agent>
      <dc:title>Matplotlib v3.5.2, https://matplotlib.org/</dc:title>
     </cc:Agent>
    </dc:creator>
   </cc:Work>
  </rdf:RDF>
 </metadata>
 <defs>
  <style type="text/css">*{stroke-linejoin: round; stroke-linecap: butt}</style>
 </defs>
 <g id="figure_1">
  <g id="patch_1">
   <path d="M 0 424.8 
L 518.4 424.8 
L 518.4 0 
L 0 0 
L 0 424.8 
z
" style="fill: none; opacity: 0"/>
  </g>
  <g id="axes_1">
   <g id="patch_2">
    <path d="M 57.024 280.368 
L 502.848 280.368 
L 502.848 59.472 
L 57.024 59.472 
L 57.024 280.368 
z
" style="fill: none; opacity: 0"/>
   </g>
   <g id="matplotlib.axis_1">
    <g id="xtick_1">
     <g id="line2d_1"/>
     <g id="text_1">
      <text style="fill: #b6c0b8; font: 9px 'Arial'" transform="translate(75.133185 320.887375)rotate(-90)">Portugal</text>
     </g>
    </g>
    <g id="xtick_2">
     <g id="line2d_2"/>
     <g id="text_2">
      <text style="fill: #b6c0b8; font: 9px 'Arial'" transform="translate(99.547887 314.884094)rotate(-90)">Ireland</text>
     </g>
    </g>
    <g id="xtick_3">
     <g id="line2d_3"/>
     <g id="text_3">
      <text style="fill: #b6c0b8; font: 9px 'Arial'" transform="translate(123.909854 316.883781)rotate(-90)">Finland</text>
     </g>
    </g>
    <g id="xtick_4">
     <g id="line2d_4"/>
     <g id="text_4">
      <text style="fill: #b6c0b8; font: 9px 'Arial'" transform="translate(148.219087 317.873781)rotate(-90)">Norway</text>
     </g>
    </g>
    <g id="xtick_5">
     <g id="line2d_5"/>
     <g id="text_5">
      <text style="fill: #b6c0b8; font: 9px 'Arial'" transform="translate(172.633788 335.893469)rotate(-90)">Netherlands</text>
     </g>
    </g>
    <g id="xtick_6">
     <g id="line2d_6"/>
     <g id="text_6">
      <text style="fill: #b6c0b8; font: 9px 'Arial'" transform="translate(196.995755 316.879563)rotate(-90)">Greece</text>
     </g>
    </g>
    <g id="xtick_7">
     <g id="line2d_7"/>
     <g id="text_7">
      <text style="fill: #b6c0b8; font: 9px 'Arial'" transform="translate(221.357723 299.870969)rotate(-90)">UK</text>
     </g>
    </g>
    <g id="xtick_8">
     <g id="line2d_8"/>
     <g id="text_8">
      <text style="fill: #b6c0b8; font: 9px 'Arial'" transform="translate(245.71969 319.890344)rotate(-90)">Sweden</text>
     </g>
    </g>
    <g id="xtick_9">
     <g id="line2d_9"/>
     <g id="text_9">
      <text style="fill: #b6c0b8; font: 9px 'Arial'" transform="translate(270.083766 324.376281)rotate(-90)">Germany</text>
     </g>
    </g>
    <g id="xtick_10">
     <g id="line2d_10"/>
     <g id="text_10">
      <text style="fill: #b6c0b8; font: 9px 'Arial'" transform="translate(294.498468 310.3855)rotate(-90)">Spain</text>
     </g>
    </g>
    <g id="xtick_11">
     <g id="line2d_11"/>
     <g id="text_11">
      <text style="fill: #b6c0b8; font: 9px 'Arial'" transform="translate(318.752857 319.881906)rotate(-90)">Belgium</text>
     </g>
    </g>
    <g id="xtick_12">
     <g id="line2d_12"/>
     <g id="text_12">
      <text style="fill: #b6c0b8; font: 9px 'Arial'" transform="translate(343.167559 323.875656)rotate(-90)">Denmark</text>
     </g>
    </g>
    <g id="xtick_13">
     <g id="line2d_13"/>
     <g id="text_13">
      <text style="fill: #b6c0b8; font: 9px 'Arial'" transform="translate(367.476791 337.395344)rotate(-90)">Luxembourg</text>
     </g>
    </g>
    <g id="xtick_14">
     <g id="line2d_14"/>
     <g id="text_14">
      <text style="fill: #b6c0b8; font: 9px 'Arial'" transform="translate(391.891493 315.376281)rotate(-90)">France</text>
     </g>
    </g>
    <g id="xtick_15">
     <g id="line2d_15"/>
     <g id="text_15">
      <text style="fill: #b6c0b8; font: 9px 'Arial'" transform="translate(416.25346 315.377688)rotate(-90)">Austria</text>
     </g>
    </g>
    <g id="xtick_16">
     <g id="line2d_16"/>
     <g id="text_16">
      <text style="fill: #b6c0b8; font: 9px 'Arial'" transform="translate(440.562693 303.873156)rotate(-90)">Italy</text>
     </g>
    </g>
    <g id="xtick_17">
     <g id="line2d_17"/>
     <g id="text_17">
      <text style="fill: #b6c0b8; font: 9px 'Arial'" transform="translate(464.92466 335.238156)rotate(-90)">EU Average</text>
     </g>
    </g>
    <g id="xtick_18">
     <g id="line2d_18"/>
     <g id="text_18">
      <text style="fill: #b6c0b8; font: 9px 'Arial'" transform="translate(489.339362 305.87425)rotate(-90)">USA</text>
     </g>
    </g>
   </g>
   <g id="matplotlib.axis_2">
    <g id="ytick_1">
     <g id="line2d_19">
      <path d="M 57.024 263.8008 
L 502.848 263.8008 
" clip-path="url(#p1b017dbb71)" style="fill: none; stroke: #414942; stroke-width: 0.65; stroke-linecap: round"/>
     </g>
     <g id="line2d_20"/>
     <g id="text_19">
      <text style="fill: #b6c0b8; font: 10.5px 'Arial'; text-anchor: end" x="49.024" y="267.558652" transform="rotate(-0, 49.024, 267.558652)">−0.15</text>
     </g>
    </g>
    <g id="ytick_2">
     <g id="line2d_21">
      <path d="M 57.024 236.1888 
L 502.848 236.1888 
" clip-path="url(#p1b017dbb71)" style="fill: none; stroke: #414942; stroke-width: 0.65; stroke-linecap: round"/>
     </g>
     <g id="line2d_22"/>
     <g id="text_20">
      <text style="fill: #b6c0b8; font: 10.5px 'Arial'; text-anchor: end" x="49.024" y="239.946652" transform="rotate(-0, 49.024, 239.946652)">−0.10</text>
     </g>
    </g>
    <g id="ytick_3">
     <g id="line2d_23">
      <path d="M 57.024 208.5768 
L 502.848 208.5768 
" clip-path="url(#p1b017dbb71)" style="fill: none; stroke: #414942; stroke-width: 0.65; stroke-linecap: round"/>
     </g>
     <g id="line2d_24"/>
     <g id="text_21">
      <text style="fill: #b6c0b8; font: 10.5px 'Arial'; text-anchor: end" x="49.024" y="212.334652" transform="rotate(-0, 49.024, 212.334652)">−0.05</text>
     </g>
    </g>
    <g id="ytick_4">
     <g id="line2d_25">
      <path d="M 57.024 180.9648 
L 502.848 180.9648 
" clip-path="url(#p1b017dbb71)" style="fill: none; stroke: #414942; stroke-width: 0.65; stroke-linecap: round"/>
     </g>
     <g id="line2d_26"/>
     <g id="text_22">
      <text style="fill: #b6c0b8; font: 10.5px 'Arial'; text-anchor: end" x="49.024" y="184.722652" transform="rotate(-0, 49.024, 184.722652)">0.00</text>
     </g>
    </g>
    <g id="ytick_5">
     <g id="line2d_27">
      <path d="M 57.024 153.3528 
L 502.848 153.3528 
" clip-path="url(#p1b017dbb71)" style="fill: none; stroke: #414942; stroke-width: 0.65; stroke-linecap: round"/>
     </g>
     <g id="line2d_28"/>
     <g id="text_23">
      <text style="fill: #b6c0b8; font: 10.5px 'Arial'; text-anchor: end" x="49.024" y="157.110652" transform="rotate(-0, 49.024, 157.110652)">0.05</text>
     </g>
    </g>
    <g id="ytick_6">
     <g id="line2d_29">
      <path d="M 57.024 125.7408 
L 502.848 125.7408 
" clip-path="url(#p1b017dbb71)" style="fill: none; stroke: #414942; stroke-width: 0.65; stroke-linecap: round"/>
     </g>
     <g id="line2d_30"/>
     <g id="text_24">
      <text style="fill: #b6c0b8; font: 10.5px 'Arial'; text-anchor: end" x="49.024" y="129.498652" transform="rotate(-0, 49.024, 129.498652)">0.10</text>
     </g>
    </g>
    <g id="ytick_7">
     <g id="line2d_31">
      <path d="M 57.024 98.1288 
L 502.848 98.1288 
" clip-path="url(#p1b017dbb71)" style="fill: none; stroke: #414942; stroke-width: 0.65; stroke-linecap: round"/>
     </g>
     <g id="line2d_32"/>
     <g id="text_25">
      <text style="fill: #b6c0b8; font: 10.5px 'Arial'; text-anchor: end" x="49.024" y="101.886652" transform="rotate(-0, 49.024, 101.886652)">0.15</text>
     </g>
    </g>
    <g id="ytick_8">
     <g id="line2d_33">
      <path d="M 57.024 70.5168 
L 502.848 70.5168 
" clip-path="url(#p1b017dbb71)" style="fill: none; stroke: #414942; stroke-width: 0.65; stroke-linecap: round"/>
     </g>
     <g id="line2d_34"/>
     <g id="text_26">
      <text style="fill: #b6c0b8; font: 10.5px 'Arial'; text-anchor: end" x="49.024" y="74.274652" transform="rotate(-0, 49.024, 74.274652)">0.20</text>
     </g>
    </g>
   </g>
   <g id="line2d_35">
    <path d="M 57.024 180.9648 
L 502.848 180.9648 
" clip-path="url(#p1b017dbb71)" style="fill: none; stroke: #b6c0b8; stroke-width: 0.8; stroke-linecap: round"/>
   </g>
   <g id="patch_3">
    <path d="M 57.024 280.368 
L 502.848 280.368 
" style="fill: none; stroke: #414942; stroke-width: 0.8; stroke-linejoin: miter; stroke-linecap: square"/>
   </g>
   <g id="text_27">
    <text style="fill: #b6c0b8; font: 10px 'Arial'; text-anchor: start" x="57.024" y="44.00928" transform="rotate(-0, 57.024, 44.00928)">Change in employment share · 1993–2006</text>
   </g>
   <g id="patch_4">
    <path d="M 63.845351 180.9648 
L 69.692223 180.9648 
L 69.692223 167.766263 
L 63.845351 167.766263 
z
" clip-path="url(#p1b017dbb71)" style="fill: #acc9bb"/>
   </g>
   <g id="patch_5">
    <path d="M 88.207318 180.9648 
L 94.05419 180.9648 
L 94.05419 146.781144 
L 88.207318 146.781144 
z
" clip-path="url(#p1b017dbb71)" style="fill: #acc9bb"/>
   </g>
   <g id="patch_6">
    <path d="M 112.569285 180.9648 
L 118.416157 180.9648 
L 118.416157 144.185617 
L 112.569285 144.185617 
z
" clip-path="url(#p1b017dbb71)" style="fill: #acc9bb"/>
   </g>
   <g id="patch_7">
    <path d="M 136.931252 180.9648 
L 142.778125 180.9648 
L 142.778125 153.573696 
L 136.931252 153.573696 
z
" clip-path="url(#p1b017dbb71)" style="fill: #acc9bb"/>
   </g>
   <g id="patch_8">
    <path d="M 161.29322 180.9648 
L 167.140092 180.9648 
L 167.140092 168.428952 
L 161.29322 168.428952 
z
" clip-path="url(#p1b017dbb71)" style="fill: #acc9bb"/>
   </g>
   <g id="patch_9">
    <path d="M 185.655187 180.9648 
L 191.502059 180.9648 
L 191.502059 171.3006 
L 185.655187 171.3006 
z
" clip-path="url(#p1b017dbb71)" style="fill: #acc9bb"/>
   </g>
   <g id="patch_10">
    <path d="M 210.017154 180.9648 
L 215.864026 180.9648 
L 215.864026 149.100552 
L 210.017154 149.100552 
z
" clip-path="url(#p1b017dbb71)" style="fill: #acc9bb"/>
   </g>
   <g id="patch_11">
    <path d="M 234.379121 180.9648 
L 240.225993 180.9648 
L 240.225993 170.417016 
L 234.379121 170.417016 
z
" clip-path="url(#p1b017dbb71)" style="fill: #acc9bb"/>
   </g>
   <g id="patch_12">
    <path d="M 258.741089 180.9648 
L 264.587961 180.9648 
L 264.587961 164.176704 
L 258.741089 164.176704 
z
" clip-path="url(#p1b017dbb71)" style="fill: #acc9bb"/>
   </g>
   <g id="patch_13">
    <path d="M 283.103056 180.9648 
L 288.949928 180.9648 
L 288.949928 175.663296 
L 283.103056 175.663296 
z
" clip-path="url(#p1b017dbb71)" style="fill: #acc9bb"/>
   </g>
   <g id="patch_14">
    <path d="M 307.465023 180.9648 
L 313.311895 180.9648 
L 313.311895 172.791648 
L 307.465023 172.791648 
z
" clip-path="url(#p1b017dbb71)" style="fill: #acc9bb"/>
   </g>
   <g id="patch_15">
    <path d="M 331.82699 180.9648 
L 337.673862 180.9648 
L 337.673862 186.266304 
L 331.82699 186.266304 
z
" clip-path="url(#p1b017dbb71)" style="fill: #acc9bb"/>
   </g>
   <g id="patch_16">
    <path d="M 356.188957 180.9648 
L 362.03583 180.9648 
L 362.03583 190.131984 
L 356.188957 190.131984 
z
" clip-path="url(#p1b017dbb71)" style="fill: #acc9bb"/>
   </g>
   <g id="patch_17">
    <path d="M 380.550925 180.9648 
L 386.397797 180.9648 
L 386.397797 185.051376 
L 380.550925 185.051376 
z
" clip-path="url(#p1b017dbb71)" style="fill: #acc9bb"/>
   </g>
   <g id="patch_18">
    <path d="M 404.912892 180.9648 
L 410.759764 180.9648 
L 410.759764 184.223016 
L 404.912892 184.223016 
z
" clip-path="url(#p1b017dbb71)" style="fill: #acc9bb"/>
   </g>
   <g id="patch_19">
    <path d="M 429.274859 180.9648 
L 435.121731 180.9648 
L 435.121731 226.248479 
L 429.274859 226.248479 
z
" clip-path="url(#p1b017dbb71)" style="fill: #acc9bb"/>
   </g>
   <g id="patch_20">
    <path d="M 453.636826 180.9648 
L 459.483698 180.9648 
L 459.483698 172.239408 
L 453.636826 172.239408 
z
" clip-path="url(#p1b017dbb71)" style="fill: #acc9bb"/>
   </g>
   <g id="patch_21">
    <path d="M 477.998793 180.9648 
L 483.845666 180.9648 
L 483.845666 170.306568 
L 477.998793 170.306568 
z
" clip-path="url(#p1b017dbb71)" style="fill: #acc9bb"/>
   </g>
   <g id="patch_22">
    <path d="M 69.935843 180.9648 
L 75.782715 180.9648 
L 75.782715 187.205112 
L 69.935843 187.205112 
z
" clip-path="url(#p1b017dbb71)" style="fill: #d9a278"/>
   </g>
   <g id="patch_23">
    <path d="M 94.29781 180.9648 
L 100.144682 180.9648 
L 100.144682 211.172327 
L 94.29781 211.172327 
z
" clip-path="url(#p1b017dbb71)" style="fill: #d9a278"/>
   </g>
   <g id="patch_24">
    <path d="M 118.659777 180.9648 
L 124.506649 180.9648 
L 124.506649 217.081296 
L 118.659777 217.081296 
z
" clip-path="url(#p1b017dbb71)" style="fill: #d9a278"/>
   </g>
   <g id="patch_25">
    <path d="M 143.021744 180.9648 
L 148.868616 180.9648 
L 148.868616 216.970848 
L 143.021744 216.970848 
z
" clip-path="url(#p1b017dbb71)" style="fill: #d9a278"/>
   </g>
   <g id="patch_26">
    <path d="M 167.383711 180.9648 
L 173.230584 180.9648 
L 173.230584 206.809631 
L 167.383711 206.809631 
z
" clip-path="url(#p1b017dbb71)" style="fill: #d9a278"/>
   </g>
   <g id="patch_27">
    <path d="M 191.745679 180.9648 
L 197.592551 180.9648 
L 197.592551 214.540992 
L 191.745679 214.540992 
z
" clip-path="url(#p1b017dbb71)" style="fill: #d9a278"/>
   </g>
   <g id="patch_28">
    <path d="M 216.107646 180.9648 
L 221.954518 180.9648 
L 221.954518 237.955966 
L 216.107646 237.955966 
z
" clip-path="url(#p1b017dbb71)" style="fill: #d9a278"/>
   </g>
   <g id="patch_29">
    <path d="M 240.469613 180.9648 
L 246.316485 180.9648 
L 246.316485 219.400704 
L 240.469613 219.400704 
z
" clip-path="url(#p1b017dbb71)" style="fill: #d9a278"/>
   </g>
   <g id="patch_30">
    <path d="M 264.83158 180.9648 
L 270.678452 180.9648 
L 270.678452 229.120129 
L 264.83158 229.120129 
z
" clip-path="url(#p1b017dbb71)" style="fill: #d9a278"/>
   </g>
   <g id="patch_31">
    <path d="M 289.193548 180.9648 
L 295.04042 180.9648 
L 295.04042 219.842496 
L 289.193548 219.842496 
z
" clip-path="url(#p1b017dbb71)" style="fill: #d9a278"/>
   </g>
   <g id="patch_32">
    <path d="M 313.555515 180.9648 
L 319.402387 180.9648 
L 319.402387 233.4276 
L 313.555515 233.4276 
z
" clip-path="url(#p1b017dbb71)" style="fill: #d9a278"/>
   </g>
   <g id="patch_33">
    <path d="M 337.917482 180.9648 
L 343.764354 180.9648 
L 343.764354 220.505183 
L 337.917482 220.505183 
z
" clip-path="url(#p1b017dbb71)" style="fill: #d9a278"/>
   </g>
   <g id="patch_34">
    <path d="M 362.279449 180.9648 
L 368.126321 180.9648 
L 368.126321 227.629079 
L 362.279449 227.629079 
z
" clip-path="url(#p1b017dbb71)" style="fill: #d9a278"/>
   </g>
   <g id="patch_35">
    <path d="M 386.641416 180.9648 
L 392.488289 180.9648 
L 392.488289 247.620166 
L 386.641416 247.620166 
z
" clip-path="url(#p1b017dbb71)" style="fill: #d9a278"/>
   </g>
   <g id="patch_36">
    <path d="M 411.003384 180.9648 
L 416.850256 180.9648 
L 416.850256 261.481392 
L 411.003384 261.481392 
z
" clip-path="url(#p1b017dbb71)" style="fill: #d9a278"/>
   </g>
   <g id="patch_37">
    <path d="M 435.365351 180.9648 
L 441.212223 180.9648 
L 441.212223 231.108192 
L 435.365351 231.108192 
z
" clip-path="url(#p1b017dbb71)" style="fill: #d9a278"/>
   </g>
   <g id="patch_38">
    <path d="M 459.727318 180.9648 
L 465.57419 180.9648 
L 465.57419 223.873848 
L 459.727318 223.873848 
z
" clip-path="url(#p1b017dbb71)" style="fill: #d9a278"/>
   </g>
   <g id="patch_39">
    <path d="M 484.089285 180.9648 
L 489.936157 180.9648 
L 489.936157 215.203679 
L 484.089285 215.203679 
z
" clip-path="url(#p1b017dbb71)" style="fill: #d9a278"/>
   </g>
   <g id="patch_40">
    <path d="M 76.026334 180.9648 
L 81.873207 180.9648 
L 81.873207 187.923024 
L 76.026334 187.923024 
z
" clip-path="url(#p1b017dbb71)" style="fill: #c0cfc5"/>
   </g>
   <g id="patch_41">
    <path d="M 100.388302 180.9648 
L 106.235174 180.9648 
L 106.235174 184.940928 
L 100.388302 184.940928 
z
" clip-path="url(#p1b017dbb71)" style="fill: #c0cfc5"/>
   </g>
   <g id="patch_42">
    <path d="M 124.750269 180.9648 
L 130.597141 180.9648 
L 130.597141 181.627488 
L 124.750269 181.627488 
z
" clip-path="url(#p1b017dbb71)" style="fill: #c0cfc5"/>
   </g>
   <g id="patch_43">
    <path d="M 149.112236 180.9648 
L 154.959108 180.9648 
L 154.959108 172.294632 
L 149.112236 172.294632 
z
" clip-path="url(#p1b017dbb71)" style="fill: #c0cfc5"/>
   </g>
   <g id="patch_44">
    <path d="M 173.474203 180.9648 
L 179.321075 180.9648 
L 179.321075 167.655816 
L 173.474203 167.655816 
z
" clip-path="url(#p1b017dbb71)" style="fill: #c0cfc5"/>
   </g>
   <g id="patch_45">
    <path d="M 197.83617 180.9648 
L 203.683043 180.9648 
L 203.683043 156.997583 
L 197.83617 156.997583 
z
" clip-path="url(#p1b017dbb71)" style="fill: #c0cfc5"/>
   </g>
   <g id="patch_46">
    <path d="M 222.198138 180.9648 
L 228.04501 180.9648 
L 228.04501 155.837879 
L 222.198138 155.837879 
z
" clip-path="url(#p1b017dbb71)" style="fill: #c0cfc5"/>
   </g>
   <g id="patch_47">
    <path d="M 246.560105 180.9648 
L 252.406977 180.9648 
L 252.406977 153.131904 
L 246.560105 153.131904 
z
" clip-path="url(#p1b017dbb71)" style="fill: #c0cfc5"/>
   </g>
   <g id="patch_48">
    <path d="M 270.922072 180.9648 
L 276.768944 180.9648 
L 276.768944 149.652792 
L 270.922072 149.652792 
z
" clip-path="url(#p1b017dbb71)" style="fill: #c0cfc5"/>
   </g>
   <g id="patch_49">
    <path d="M 295.284039 180.9648 
L 301.130911 180.9648 
L 301.130911 147.443831 
L 295.284039 147.443831 
z
" clip-path="url(#p1b017dbb71)" style="fill: #c0cfc5"/>
   </g>
   <g id="patch_50">
    <path d="M 319.646007 180.9648 
L 325.492879 180.9648 
L 325.492879 136.619929 
L 319.646007 136.619929 
z
" clip-path="url(#p1b017dbb71)" style="fill: #c0cfc5"/>
   </g>
   <g id="patch_51">
    <path d="M 344.007974 180.9648 
L 349.854846 180.9648 
L 349.854846 136.067687 
L 344.007974 136.067687 
z
" clip-path="url(#p1b017dbb71)" style="fill: #c0cfc5"/>
   </g>
   <g id="patch_52">
    <path d="M 368.369941 180.9648 
L 374.216813 180.9648 
L 374.216813 125.188558 
L 368.369941 125.188558 
z
" clip-path="url(#p1b017dbb71)" style="fill: #c0cfc5"/>
   </g>
   <g id="patch_53">
    <path d="M 392.731908 180.9648 
L 398.57878 180.9648 
L 398.57878 110.222854 
L 392.731908 110.222854 
z
" clip-path="url(#p1b017dbb71)" style="fill: #c0cfc5"/>
   </g>
   <g id="patch_54">
    <path d="M 417.093875 180.9648 
L 422.940748 180.9648 
L 422.940748 97.189992 
L 417.093875 97.189992 
z
" clip-path="url(#p1b017dbb71)" style="fill: #c0cfc5"/>
   </g>
   <g id="patch_55">
    <path d="M 441.455843 180.9648 
L 447.302715 180.9648 
L 447.302715 85.537724 
L 441.455843 85.537724 
z
" clip-path="url(#p1b017dbb71)" style="fill: #c0cfc5"/>
   </g>
   <g id="patch_56">
    <path d="M 465.81781 180.9648 
L 471.664682 180.9648 
L 471.664682 146.781144 
L 465.81781 146.781144 
z
" clip-path="url(#p1b017dbb71)" style="fill: #c0cfc5"/>
   </g>
   <g id="patch_57">
    <path d="M 490.179777 180.9648 
L 496.026649 180.9648 
L 496.026649 157.384152 
L 490.179777 157.384152 
z
" clip-path="url(#p1b017dbb71)" style="fill: #c0cfc5"/>
   </g>
   <g id="legend_1">
    <g id="patch_58">
     <path d="M 127.931812 393.990075 
L 139.371812 393.990075 
L 139.371812 387.830075 
L 127.931812 387.830075 
z
" style="fill: #acc9bb"/>
    </g>
    <g id="text_28">
     <text style="fill: #b6c0b8; font: 8.8px 'Arial'; text-anchor: start" x="146.411812" y="393.990075" transform="rotate(-0, 146.411812, 393.990075)">Lowest paying third</text>
    </g>
    <g id="patch_59">
     <path d="M 232.789312 393.990075 
L 244.229312 393.990075 
L 244.229312 387.830075 
L 232.789312 387.830075 
z
" style="fill: #d9a278"/>
    </g>
    <g id="text_29">
     <text style="fill: #b6c0b8; font: 8.8px 'Arial'; text-anchor: start" x="251.269313" y="393.990075" transform="rotate(-0, 251.269313, 393.990075)">Middle paying third</text>
    </g>
    <g id="patch_60">
     <path d="M 335.687437 393.990075 
L 347.127437 393.990075 
L 347.127437 387.830075 
L 335.687437 387.830075 
z
" style="fill: #c0cfc5"/>
    </g>
    <g id="text_30">
     <text style="fill: #b6c0b8; font: 8.8px 'Arial'; text-anchor: start" x="354.167438" y="393.990075" transform="rotate(-0, 354.167438, 393.990075)">Highest paying third</text>
    </g>
   </g>
  </g>
 </g>
 <defs>
  <clipPath id="p1b017dbb71">
   <rect x="57.024" y="59.472" width="445.824" height="220.896"/>
  </clipPath>
 </defs>
</svg>
